<svg id="visual" viewBox="0 0 900 600" width="900" height="600" xmlns="http://www.w3.org/2000/svg" xmlns:xlink="http://www.w3.org/1999/xlink" version="1.1"><rect x="0" y="0" width="900" height="600" fill="#001220"></rect><defs><linearGradient id="grad1_0" x1="33.3%" y1="0%" x2="100%" y2="100%"><stop offset="20%" stop-color="#1b5c88" stop-opacity="1"></stop><stop offset="80%" stop-color="#1b5c88" stop-opacity="1"></stop></linearGradient></defs><defs><linearGradient id="grad1_1" x1="33.3%" y1="0%" x2="100%" y2="100%"><stop offset="20%" stop-color="#1b5c88" stop-opacity="1"></stop><stop offset="80%" stop-color="#0e3551" stop-opacity="1"></stop></linearGradient></defs><defs><linearGradient id="grad1_2" x1="33.3%" y1="0%" x2="100%" y2="100%"><stop offset="20%" stop-color="#001220" stop-opacity="1"></stop><stop offset="80%" stop-color="#0e3551" stop-opacity="1"></stop></linearGradient></defs><defs><linearGradient id="grad2_0" x1="0%" y1="0%" x2="66.7%" y2="100%"><stop offset="20%" stop-color="#1b5c88" stop-opacity="1"></stop><stop offset="80%" stop-color="#1b5c88" stop-opacity="1"></stop></linearGradient></defs><defs><linearGradient id="grad2_1" x1="0%" y1="0%" x2="66.7%" y2="100%"><stop offset="20%" stop-color="#0e3551" stop-opacity="1"></stop><stop offset="80%" stop-color="#1b5c88" stop-opacity="1"></stop></linearGradient></defs><defs><linearGradient id="grad2_2" x1="0%" y1="0%" x2="66.7%" y2="100%"><stop offset="20%" stop-color="#0e3551" stop-opacity="1"></stop><stop offset="80%" stop-color="#001220" stop-opacity="1"></stop></linearGradient></defs><g transform="translate(900, 0)"><path d="M0 393C-40.2 368.9 -80.3 344.9 -140.1 338.1C-199.8 331.4 -279.1 341.9 -308.3 308.3C-337.5 274.7 -316.6 196.9 -333.5 138.1C-350.4 79.4 -405.1 39.7 -459.7 0L0 0Z" fill="#072338"></path><path d="M0 262C-26.8 246 -53.6 229.9 -93.4 225.4C-133.2 220.9 -186.1 227.9 -205.5 205.5C-225 183.1 -211.1 131.3 -222.3 92.1C-233.6 52.9 -270 26.5 -306.5 0L0 0Z" fill="#14486c"></path><path d="M0 131C-13.4 123 -26.8 115 -46.7 112.7C-66.6 110.5 -93 114 -102.8 102.8C-112.5 91.6 -105.5 65.6 -111.2 46C-116.8 26.5 -135 13.2 -153.2 0L0 0Z" fill="#1b5c88"></path></g><g transform="translate(0, 600)"><path d="M0 -333C52 -338.6 104 -344.2 130.9 -316C157.8 -287.7 159.6 -225.7 198 -198C236.4 -170.3 311.5 -176.9 361.2 -149.6C411 -122.4 435.3 -61.2 459.7 0L0 0Z" fill="#072338"></path><path d="M0 -222C34.7 -225.7 69.3 -229.5 87.3 -210.6C105.2 -191.8 106.4 -150.5 132 -132C157.6 -113.5 207.7 -117.9 240.8 -99.8C274 -81.6 290.2 -40.8 306.5 0L0 0Z" fill="#14486c"></path><path d="M0 -111C17.3 -112.9 34.7 -114.7 43.6 -105.3C52.6 -95.9 53.2 -75.2 66 -66C78.8 -56.8 103.8 -59 120.4 -49.9C137 -40.8 145.1 -20.4 153.2 0L0 0Z" fill="#1b5c88"></path></g></svg>