<svg id="visual" viewBox="0 0 900 600" width="900" height="600" xmlns="http://www.w3.org/2000/svg" xmlns:xlink="http://www.w3.org/1999/xlink" version="1.1"><rect x="0" y="0" width="900" height="600" fill="#002233"></rect><path d="M0 382L21.5 393.8C43 405.7 86 429.3 128.8 452.2C171.7 475 214.3 497 257.2 501.8C300 506.7 343 494.3 385.8 470.7C428.7 447 471.3 412 514.2 417.3C557 422.7 600 468.3 642.8 481.7C685.7 495 728.3 476 771.2 466.3C814 456.7 857 456.3 878.5 456.2L900 456L900 601L878.5 601C857 601 814 601 771.2 601C728.3 601 685.7 601 642.8 601C600 601 557 601 514.2 601C471.3 601 428.7 601 385.8 601C343 601 300 601 257.2 601C214.3 601 171.7 601 128.8 601C86 601 43 601 21.5 601L0 601Z" fill="#0066FF" stroke-linecap="round" stroke-linejoin="miter"></path></svg>