<svg id="svg" version="1.1"
    xmlns="http://www.w3.org/2000/svg"
    xmlns:xlink="http://www.w3.org/1999/xlink" width="400" height="400" viewBox="48, 28, 350,350">
    <g id="svgg">
        <path fill="white" stroke="white" fill-rule="evenodd" id="path0" d="M189.971 92.635 C 149.300 97.349,116.548 122.922,103.126 160.443 C 101.310 165.521,101.242 165.616,99.409 165.616 C 74.693 165.616,61.203 206.790,76.301 236.146 C 84.119 251.347,95.357 257.064,110.029 253.304 C 123.208 249.927,123.098 250.479,117.720 214.900 C 113.607 187.695,113.597 187.490,115.844 177.110 C 126.661 127.148,178.758 97.116,226.752 113.176 C 255.741 122.876,277.805 147.457,284.140 177.110 C 286.300 187.220,286.272 188.377,283.411 207.450 L 280.789 224.928 276.821 233.010 C 261.473 264.271,233.326 280.793,195.407 280.800 C 177.534 280.803,175.645 282.091,175.645 294.269 C 175.645 307.052,176.886 307.736,200.070 307.736 L 217.062 307.736 219.801 305.874 C 223.083 303.642,224.639 300.931,224.649 297.430 L 224.656 294.842 231.581 292.624 C 249.864 286.769,269.314 273.334,280.229 259.021 C 281.963 256.748,283.898 254.255,284.529 253.481 L 285.678 252.075 290.260 253.366 C 312.494 259.627,329.878 239.542,329.752 207.736 C 329.658 184.033,319.715 168.480,303.186 166.182 C 298.082 165.472,298.795 166.122,296.785 160.348 C 281.592 116.711,235.320 87.378,189.971 92.635 M191.691 124.118 C 178.516 125.992,169.628 129.320,159.302 136.246 C 125.196 159.122,118.530 209.208,145.353 241.057 L 147.836 244.004 145.838 252.923 C 143.239 264.522,143.209 267.476,145.664 269.931 C 148.331 272.599,150.170 272.131,161.319 265.953 C 172.204 259.922,170.492 260.313,176.882 262.398 C 233.989 281.033,286.594 227.677,267.217 170.774 C 256.856 140.348,223.303 119.621,191.691 124.118 M169.364 183.591 C 175.113 186.268,177.934 192.175,176.243 197.992 C 172.741 210.039,157.535 210.807,152.400 199.196 C 148.003 189.252,159.268 178.890,169.364 183.591 M204.460 183.124 C 215.069 187.549,215.069 202.136,204.460 206.561 C 194.821 210.582,184.261 200.022,188.281 190.383 C 190.955 183.972,198.441 180.613,204.460 183.124 M240.688 183.429 C 245.735 185.718,248.362 189.624,248.362 194.842 C 248.362 207.985,230.598 212.281,224.667 200.573 C 219.402 190.181,230.168 178.660,240.688 183.429 " ></path>
    </g>
</svg>