<svg viewBox="2 2 17 17" height="37.47" width="37.47"
    xmlns="http://www.w3.org/2000/svg">
    <path d="m10 2c4.4183 0 8 3.58172 8 8 0 4.4183-3.5817 8-8 8-4.41828 0-8-3.5817-8-8 0-4.41828 3.58172-8 8-8zm0 1c-3.86599 0-7 3.13401-7 7 0 3.866 3.13401 7 7 7 3.866 0 7-3.134 7-7 0-3.86599-3.134-7-7-7zm0 3c.2761 0 .5.22386.5.5v3h3c.2761 0 .5.22386.5.5 0 .2761-.2239.5-.5.5h-3v3c0 .2761-.2239.5-.5.5-.27614 0-.5-.2239-.5-.5v-3h-3c-.27614 0-.5-.2239-.5-.5 0-.27614.22386-.5.5-.5h3v-3c0-.27614.22386-.5.5-.5z" fill="#212121"/>
</svg>