<svg viewBox="0 0 48 48" xmlns="http://www.w3.org/2000/svg"><g fill="#374f68"><path d="m24 47h-19v-12l10.5-6c5.4 10.8 3.5 6.67 8.5 18z"/><path d="m43 35v12h-19c5-11.33 3.1-7.2 8.5-18z"/><path d="m43 35v12h-19c5-11.33 3.1-7.2 8.5-18z"/></g><path d="m43 35v12h-19c5-11.33 3.1-7.2 8.5-18z" fill="#425b72"/><path d="m32.5 29-4.5 9-4-4 5-7z" fill="#dad7e5"/><path d="m29 27-2 2.79a3.64 3.64 0 0 1 1.45 4.79l-1.29 2.59.84.83 4.5-9z" fill="#edebf2"/><path d="m29 22.24v4.76l-5 7-5-7v-4.76a8 8 0 0 0 10 0z" fill="#f6ccaf"/><path d="m19 22.24v2.68a8 8 0 0 0 9-.68v4.16l1-1.4v-4.76a8 8 0 0 1 -10 0z" fill="#edb996"/><path d="m24 34-4 4-4.5-9 3.5-2z" fill="#dad7e5"/><path d="m28 38-4 9-4-9 4-4z" fill="#f26674"/><path d="m27 37-3.72 8.38-3.28-7.38 4-4z" fill="#db5669"/><path d="m32 12c0 4.2.51 7.42-3 10.24a8 8 0 0 1 -13-6.24c0-3.34-.32-5.56 1-7.9 2.2-4.39 8.71-5.67 12.64-1.76a8.06 8.06 0 0 1 2.36 5.66z" fill="#ffdec7"/><path d="m30 14c0 3.4.41 6-1.44 8.57a8 8 0 0 1 -12.31-4.57c-.34-1.36-.25-2-.25-6a8 8 0 0 1 1.46-4.59 8 8 0 0 1 12.54 6.59z" fill="#f6ccaf"/><path d="m33.52 9.9c-3.01-9.22-16.11-9.16-19.06.1a1 1 0 0 1 -1.9-.6c3.54-11.16 19.34-11.16 22.88-.04a1 1 0 1 1 -1.92.54z" fill="#374f68"/><path d="m35.44 9.36a12 12 0 0 0 -20.44-4.36 12 12 0 0 1 19.41 5.34.76.76 0 0 1 .05.3 1 1 0 0 0 .98-1.28z" fill="#425b72"/><path d="m30.23 21a8 8 0 0 1 -2.36 2h-2.87a1 1 0 0 1 0-2z" fill="#edb996"/><path d="m35 22h-9a1 1 0 0 1 0-2h8v-4a1 1 0 0 1 2 0v5a1 1 0 0 1 -1 1z" fill="#374f68"/><path d="m34.5 15.15c.66.4.5.46.5 5.85a1 1 0 0 1 -1 1h1a1 1 0 0 0 1-1v-5a1 1 0 0 0 -1.5-.85z" fill="#425b72"/><path d="m16 16c0 2.15.57 2 0 2a5 5 0 1 1 1-9.9c-1.27 2.28-1 4.04-1 7.9z" fill="#db5669"/><path d="m37 13a5 5 0 0 1 -5 5c-.51 0 0 0 0-2 0-3.18.35-5.47-1-7.9a5 5 0 0 1 6 4.9z" fill="#f26674"/><path d="m34.39 17.39a4.93 4.93 0 0 1 -2.39.61c-.51 0 0 0 0-2 0-4.19.06-4.61-.18-5.66a5 5 0 0 1 2.57 7.05z" fill="#db5669"/><path d="m37 44h-3a1 1 0 0 1 0-2h3a1 1 0 0 1 0 2z" fill="#dad7e5"/><path d="m32 12v.92a7 7 0 0 1 -5.5-4.32 10 10 0 0 1 -10.5 2.94 8 8 0 0 1 16 .46z" fill="#be927c"/><path d="m31 13.92a5.69 5.69 0 0 1 -1-.23c-.08-2-.75-1.51 1-1a9.58 9.58 0 0 1 0 1.23z" fill="#f6ccaf"/><path d="m30 13.69a6.92 6.92 0 0 1 -4.5-4.09 9.93 9.93 0 0 1 -9.5 3.19 10.53 10.53 0 0 1 0-1.25 10 10 0 0 0 10.5-2.94 7 7 0 0 0 3.29 3.62 6.53 6.53 0 0 1 .21 1.47z" fill="#edb996"/><path d="m29.8 12.22a7 7 0 0 1 -3.3-3.62 10 10 0 0 1 -10.5 2.94 8 8 0 0 1 1.42-4.11 8 8 0 0 1 12.38 4.79z" fill="#a87e6b"/></svg>