<svg enable-background="new 0 0 64 64" viewBox="0 0 64 64"
    xmlns="http://www.w3.org/2000/svg">
    <path stroke="black" stroke-width="0.8" d="m32 2c-16.57 0-30 13.43-30 30s13.43 30 30 30 30-13.43 30-30-13.43-30-30-30zm0 57.5c-15.164 0-27.5-12.336-27.5-27.5s12.336-27.5 27.5-27.5 27.5 12.336 27.5 27.5-12.336 27.5-27.5 27.5z"/>
    <path stroke="black" stroke-width="0.8" d="m47.783 34.006c-15.783 0-15.783 0-31.568 0-.785 0-1.505-.09-1.912.43-3.909 4.986.69 19.564 17.696 19.564 17.007 0 21.606-14.578 17.696-19.564-.406-.52-1.127-.43-1.912-.43m-15.783 18.176c-2.913 0-5.483-.561-7.713-1.517 2.152-1.032 4.711-1.663 7.713-1.663s5.563.631 7.713 1.663c-2.229.956-4.799 1.517-7.713 1.517m15.006-12.182c-10.422 0-19.591 0-30.012 0-2.001 0-2.001-4 .053-4h29.906c2.053 0 2.053 4 .053 4"/>
    <circle stroke="black" stroke-width="0.8" cx="20.5" cy="23" r="5"/>
    <circle stroke="black" stroke-width="0.8" cx="43.5" cy="23" r="5"/>
</svg>