<svg enable-background="new 0 0 115 115" viewBox="0 0 115 115" xmlns="http://www.w3.org/2000/svg"><circle cx="57.5" cy="57.5" fill="#96ceb4" r="57.5"/><path d="m95.612 56.809c-.075-.065-.161-.116-.239-.178-.255-.202-.52-.39-.801-.558-.13-.078-.265-.145-.401-.215-.263-.136-.535-.254-.817-.358-.023-.008-.043-.021-.066-.029.08-.291.131-.629.108-1.078-.263-5.166-1.313-7.793-2.364-10.77-.931-2.639-2.071-4.515-4.208-3.934-3.904-7.185-9.955-13.028-17.297-16.671-.262-1.992-1.869-3.858-4.251-4.407-8.585-1.987-17.486-1.987-26.072 0-2.226.513-3.761 2.18-4.169 4.022-7.884 3.7-14.349 9.917-18.373 17.613-2.199-.666-3.361 1.224-4.306 3.902-1.051 2.977-2.101 5.604-2.364 10.77-.034.664.059 1.138.24 1.468-.112.079-.222.16-.329.245-.078.062-.164.113-.239.178-1.765 1.523-2.783 3.858-2.509 6.337l1.285 11.585c.285 2.575 1.903 4.681 4.082 5.746.302.148.612.276.933.382.141.046.285.082.429.119.289.076.583.132.883.172.088.011.171.042.259.05v15.054c.947 1.038 1.941 2.031 2.961 2.996h11.734c-1.546 1.895-2.866 3.98-3.935 6.208 9.092 6.025 19.99 9.542 31.714 9.542 7.907 0 15.439-1.598 22.296-4.485 1.004-.56 1.997-1.136 2.963-1.752-1.199-3.501-3.024-6.705-5.315-9.512h13.114v-18.107c.285-.039.563-.094.837-.166.144-.038.288-.073.429-.119.321-.106.632-.234.934-.382.079-.039.163-.066.241-.107 2.058-1.099 3.565-3.157 3.84-5.639l1.283-11.585c.274-2.479-.745-4.814-2.51-6.337z" fill="#71a58a"/><path d="m20.63 50.716h75.532v45.734h-75.532z" fill="#99734a"/><path d="m59.193 85.095c-14.177 0-26.09 9.573-29.704 22.599 8.292 4.637 17.835 7.306 28.011 7.306 11.37 0 21.94-3.344 30.863-9.039-4.155-12.132-15.63-20.866-29.17-20.866z" fill="#ff6f69"/><path d="m59.193 85.095c-8.509 0-16.186 3.465-21.759 9.039 5.95 3.286 12.788 5.162 20.066 5.162 8.144 0 15.735-2.351 22.148-6.399-5.44-4.844-12.593-7.802-20.455-7.802z" fill="#e05858"/><ellipse cx="57.5" cy="95.985" fill="#ffeead" rx="12.364" ry="10.89"/><path d="m58.116 85.122c-1.379.048-2.733.185-4.059.409-5.152 1.314-8.921 5.493-8.921 10.454 0 .495.051.979.123 1.457 3.871 1.194 7.977 1.854 12.24 1.854 4.264 0 8.37-.659 12.24-1.854.073-.478.123-.962.123-1.457.002-5.831-5.206-10.578-11.746-10.863z" fill="#c9b77d"/><path d="m57.5 16.088c-21.449 0-38.921 16.991-39.713 38.247h79.426c-.792-21.256-18.264-38.247-39.713-38.247z" fill="#ffeead"/><path d="m96.637 40.821c-1.051-2.977-2.364-4.991-5.079-3.59-2.714 1.401-3.678 2.802-1.489 6.83s1.926 6.392 2.014 6.655c0 0 7.18 6.042 6.917.876s-1.312-7.794-2.363-10.771z" fill="#ffcc5c"/><path d="m23.04 37.757c-2.714-1.401-4.028.613-5.079 3.59s-2.101 5.604-2.364 10.77 6.917-.876 6.917-.876c.088-.263-.175-2.627 2.014-6.655s1.227-5.428-1.488-6.829z" fill="#ffcc5c"/><path d="m70.881 15.81c-8.585-1.987-17.486-1.987-26.072 0-3.131.722-4.939 3.719-4.087 6.287.852 2.578 3.592 3.96 6.145 3.377 7.23-1.673 14.726-1.673 21.957 0 2.553.583 5.293-.8 6.145-3.377.851-2.569-.957-5.565-4.088-6.287z" fill="#ffcc5c"/><circle cx="57.5" cy="57.728" fill="#ffeead" r="38.721"/><g fill="#99734a"><path d="m57.5 19.007c-21.385 0-38.721 17.336-38.721 38.721 0 .692.068 1.367.103 2.051 15.842-2.146 30.937-9.753 41.941-21.368-1.128 5.94-3.494 11.641-6.902 16.635 13.747-1.382 26.685-8.694 35.352-19.415-6.995-10.04-18.608-16.624-31.773-16.624z"/><ellipse cx="41.375" cy="68.737" rx="4.477" ry="5.756"/><ellipse cx="70.579" cy="68.737" rx="4.477" ry="5.756"/><path d="m81.436 27.33-1.904 12.063s13.532 16.74 15.086 29.313c1.029-3.483 1.603-7.161 1.603-10.978 0-12.34-5.792-23.308-14.785-30.398z"/></g><path d="m93.643 70.389c-.34-.277-.845-.225-1.122.115l-12.128 14.901c-.277.34-.225.845.115 1.122s.845.225 1.122-.115l12.128-14.901c.277-.341.225-.845-.115-1.122z" fill="#71a58a"/><path d="m51.108 83.421c0 3.53 2.862 6.392 6.392 6.392s6.392-2.862 6.392-6.392z" fill="#ff6f69"/><path d="m79.899 85.019h-1.844c-.879 0-1.598.719-1.598 1.598s.719 1.598 1.598 1.598h1.844c.879 0 1.598-.719 1.598-1.598s-.719-1.598-1.598-1.598z" fill="#ff6f69"/><path d="m97.268 52.279c-3.993-.442-7.623 2.463-8.065 6.457l-1.283 11.585c-.442 3.993 2.463 7.623 6.457 8.065 3.993.442 7.623-2.463 8.065-6.457l1.283-11.585c.442-3.994-2.463-7.623-6.457-8.065z" fill="#ffeead"/><path d="m97.399 59.97c.288-2.599 1.781-4.767 3.817-5.963-1.078-.931-2.433-1.56-3.948-1.727-3.993-.442-7.623 2.463-8.065 6.457l-1.283 11.585c-.442 3.993 2.444 7.677 6.438 8.119 1.512.167 2.989-.203 4.244-.873-1.722-1.614-2.703-4.052-2.416-6.649z" fill="#e05858"/><path d="m97.399 59.97c.288-2.599 1.781-4.766 3.817-5.963-.25-.216-.523-.417-.802-.598-2.016 1.266-3.506 3.539-3.804 6.229l-1.265 11.432c-.298 2.688.664 5.227 2.352 6.903.312-.116.615-.25.906-.405-1.722-1.614-2.703-4.052-2.416-6.649z" fill="#ffcc5c"/><ellipse cx="100.881" cy="65.663" fill="#ffcc5c" rx="7.909" ry="1.347" transform="matrix(.11 -.9939 .9939 .11 24.5154 158.7061)"/><path d="m28.565 70.321-1.283-11.585c-.442-3.993-4.071-6.899-8.065-6.457-3.993.442-6.899 4.071-6.457 8.065l1.283 11.585c.442 3.993 4.071 6.899 8.065 6.457s6.899-4.071 6.457-8.065z" fill="#ffeead"/><path d="m28.565 70.321-1.283-11.585c-.442-3.993-4.071-6.899-8.065-6.457-1.515.168-2.87.797-3.948 1.727 2.036 1.197 3.529 3.364 3.817 5.963l1.212 10.948c.287 2.597-.693 5.036-2.416 6.649 1.255.67 2.711 1.02 4.224.853 3.995-.441 6.901-4.104 6.459-8.098z" fill="#e05858"/><path d="m21.141 71.07-1.266-11.431c-.298-2.691-1.779-4.965-3.796-6.231-.278.181-.56.383-.81.599 2.036 1.197 3.529 3.364 3.817 5.963l1.212 10.948c.287 2.597-.693 5.036-2.416 6.649.291.156.576.29.888.405 1.689-1.675 2.669-4.215 2.371-6.902z" fill="#ffcc5c"/><ellipse cx="15.605" cy="65.663" fill="#ffcc5c" rx="1.347" ry="7.909" transform="matrix(.9939 -.11 .11 .9939 -7.1297 2.1155)"/><path d="m74.868 62.261c.007.609-.429 1.123-.84 1.573-.298.326-.679.683-1.113.602l.716 1.611c.687-.3 1.234-.903 1.467-1.615.233-.713.147-1.524-.23-2.171z" fill="#99734a"/><path d="m37.59 63.834c-.411-.45-.847-.963-.84-1.573-.377.648-.463 1.458-.23 2.17s.78 1.315 1.467 1.615l.716-1.611c-.434.081-.815-.275-1.113-.601z" fill="#99734a"/></svg>