<svg viewBox="0 0 64 64" xmlns="http://www.w3.org/2000/svg"><circle cx="32" cy="32" fill="#ffdd67" r="30"/><path d="m49.7 34.4c-.4-.5-1.1-.4-1.9-.4h-31.6c-.8 0-1.5-.1-1.9.4-3.9 5 .7 19.6 17.7 19.6s21.6-14.6 17.7-19.6" fill="#664e27"/><path d="m33.8 41.7c-.6 0-1.5.5-1.1 2 .2.7 1.2 1.6 1.2 2.8 0 2.4-3.8 2.4-3.8 0 0-1.2 1-2 1.2-2.8.3-1.4-.6-2-1.1-2-1.6 0-4.1 1.7-4.1 4.6 0 3.2 2.7 5.8 6 5.8s6-2.6 6-5.8c-.1-2.8-2.7-4.5-4.3-4.6" fill="#4c3526"/><path d="m24.3 50.7c2.2 1 4.8 1.5 7.7 1.5s5.5-.6 7.7-1.5c-2.1-1.1-4.7-1.7-7.7-1.7s-5.6.6-7.7 1.7" fill="#ff717f"/><path d="m47 36h-29.9c-2.1 0-2.1 4-.1 4h30c2 0 2-4 0-4" fill="#fff"/><g fill="#664e27"><circle cx="20.5" cy="23" r="5"/><circle cx="43.5" cy="23" r="5"/></g></svg>